<?xml version="1.0" encoding="UTF-8" standalone="no"?><!DOCTYPE svg PUBLIC "-//W3C//DTD SVG 1.1//EN" "http://www.w3.org/Graphics/SVG/1.1/DTD/svg11.dtd"><svg width="100%" height="100%" viewBox="0 0 236 48" version="1.1" xmlns="http://www.w3.org/2000/svg" xmlns:xlink="http://www.w3.org/1999/xlink" xml:space="preserve" xmlns:serif="http://www.serif.com/" style="fill-rule:evenodd;clip-rule:evenodd;stroke-linejoin:round;stroke-miterlimit:1.41421;"><rect id="sensor-kit" x="0" y="0" width="235.2" height="48" style="fill:none;"/><clipPath id="_clip1"><rect x="0" y="0" width="235.2" height="48"/></clipPath><g clip-path="url(#_clip1)"><rect id="gradient" x="0" y="0" width="235.2" height="48" style="fill:url(#_Linear2);"/><g id="SensorKit"><path d="M96.555,20.949c-1.458,-0.768 -2.448,-0.882 -3.546,-0.882c-2.016,0 -3.366,1.074 -3.408,2.682c-0.042,1.488 0.762,2.322 2.694,2.652l0.318,0.054c1.044,0.18 1.566,0.258 1.566,0.696c0,0.414 -0.45,0.582 -1.062,0.582c-1.278,0 -2.082,-0.462 -2.748,-0.864l-1.116,1.86c0.96,0.684 2.328,1.044 3.834,1.044c1.788,0 3.582,-0.786 3.582,-2.91c0,-1.29 -0.882,-2.124 -2.616,-2.46l-0.27,-0.054c-0.858,-0.168 -1.716,-0.216 -1.716,-0.69c0,-0.378 0.468,-0.546 1.08,-0.546c1.038,0 1.872,0.39 2.424,0.702l0.984,-1.866Z" style="fill:#fff;fill-rule:nonzero;"/><path d="M100.431,22.509c-1.83,0 -3.09,1.302 -3.09,3.186c0,1.842 1.272,3.078 3.174,3.078c1.176,0 2.112,-0.408 2.688,-1.032l-1.464,-1.224c-0.324,0.318 -0.738,0.48 -1.122,0.48c-0.564,0 -0.924,-0.24 -1.068,-0.72l3.882,0c0.024,-0.12 0.042,-0.432 0.042,-0.636c-0.006,-1.86 -1.242,-3.132 -3.042,-3.132Zm0.012,1.794c0.444,0 0.744,0.222 0.9,0.684l-1.788,0c0.138,-0.462 0.432,-0.684 0.888,-0.684Z" style="fill:#fff;fill-rule:nonzero;"/><path d="M107.889,22.509c-0.744,0 -1.272,0.258 -1.608,0.774l0,-0.612l-2.034,0l0,5.946l2.136,0l0,-3.186c0,-0.642 0.318,-0.924 0.744,-0.924c0.468,0 0.75,0.318 0.75,0.912l0,3.198l2.136,0l0,-3.87c0,-1.368 -0.894,-2.238 -2.124,-2.238Z" style="fill:#fff;fill-rule:nonzero;"/><path d="M116.187,22.971c-1.116,-0.366 -1.638,-0.462 -2.616,-0.462c-1.662,0 -2.616,0.72 -2.616,2.028c0,1.104 0.66,1.692 2.13,1.92l0.234,0.036c0.66,0.102 0.906,0.138 0.906,0.33c0,0.174 -0.15,0.252 -0.618,0.252c-0.768,0 -1.494,-0.18 -2.154,-0.54l-0.684,1.668c0.6,0.36 1.644,0.57 2.826,0.57c1.74,0 2.766,-0.774 2.766,-2.148c0,-0.99 -0.63,-1.614 -1.896,-1.824l-0.36,-0.06c-0.54,-0.09 -0.948,-0.102 -0.948,-0.318c0,-0.138 0.102,-0.222 0.516,-0.222c0.546,0 1.326,0.186 2.004,0.438l0.51,-1.668Z" style="fill:#fff;fill-rule:nonzero;"/><path d="M120.057,22.509c-1.866,0 -3.24,1.326 -3.24,3.132c0,1.806 1.374,3.132 3.24,3.132c1.866,0 3.24,-1.326 3.24,-3.132c0,-1.806 -1.374,-3.132 -3.24,-3.132Zm0,1.986c0.612,0 1.056,0.48 1.056,1.146c0,0.666 -0.444,1.146 -1.056,1.146c-0.612,0 -1.056,-0.48 -1.056,-1.146c0,-0.666 0.444,-1.146 1.056,-1.146Z" style="fill:#fff;fill-rule:nonzero;"/><path d="M127.689,22.509c-0.726,0 -1.248,0.234 -1.578,0.762l0,-0.6l-2.04,0l0,5.946l2.142,0l0,-3.186c0,-0.654 0.36,-0.864 0.954,-0.864c0.342,0 0.69,0.072 0.936,0.138l0.12,-2.136c-0.084,-0.018 -0.3,-0.06 -0.534,-0.06Z" style="fill:#fff;fill-rule:nonzero;"/><path d="M134.277,28.617l2.802,0l-3.312,-4.302l3.042,-4.098l-2.772,0l-2.118,3.156l-0.66,0l0,-3.156l-2.28,0l0,8.4l2.28,0l0,-3.216l0.648,0l2.37,3.216Z" style="fill:#fff;fill-rule:nonzero;"/><path d="M139.575,22.671l-2.136,0l0,5.946l2.136,0l0,-5.946Zm-1.074,-2.964c-0.69,0 -1.224,0.534 -1.224,1.224c0,0.69 0.534,1.224 1.224,1.224c0.69,0 1.224,-0.534 1.224,-1.224c0,-0.69 -0.534,-1.224 -1.224,-1.224Z" style="fill:#fff;fill-rule:nonzero;"/><path d="M145.401,22.671l-1.932,0l0,-1.704l-2.136,0l0,1.704l-1.08,0l0,1.884l1.08,0l0,1.722c0,1.458 0.69,2.496 2.382,2.496c1.044,0 1.638,-0.276 2.232,-0.69l-0.714,-1.656c-0.276,0.156 -0.636,0.36 -0.966,0.36c-0.462,0 -0.798,-0.198 -0.798,-0.84l0,-1.392l1.932,0l0,-1.884Z" style="fill:#fff;fill-rule:nonzero;"/></g></g><defs><linearGradient id="_Linear2" x1="0" y1="0" x2="1" y2="0" gradientUnits="userSpaceOnUse" gradientTransform="matrix(2.93915e-15,48,-48,2.93915e-15,117.6,8.88178e-16)"><stop offset="0" style="stop-color:#e65100;stop-opacity:1"/><stop offset="1" style="stop-color:#d84314;stop-opacity:1"/></linearGradient></defs></svg>